<svg xmlns="http://www.w3.org/2000/svg" xmlns:xlink="http://www.w3.org/1999/xlink" width="30" height="25" viewBox="0 0 30 25">
    <defs>
        <path id="prefix__a" d="M0 0.001L29.813 0.001 29.813 24.213 0 24.213z"/>
    </defs>
    <g fill="none" fill-rule="evenodd">
        <mask id="prefix__b" fill="#fff">
            <use xlink:href="#prefix__a"/>
        </mask>
        <path fill="#FFF" d="M29.813 2.875c-.845 1.234-1.868 2.29-3.065 3.16.011.176.02.441.02.794 0 1.639-.24 3.277-.72 4.907-.478 1.636-1.207 3.204-2.184 4.7-.978 1.504-2.142 2.831-3.49 3.984-1.35 1.155-2.977 2.073-4.88 2.762-1.904.687-3.941 1.032-6.11 1.032-3.419 0-6.546-.916-9.385-2.743.444.05.935.073 1.478.073 2.836 0 5.364-.87 7.584-2.607-1.322-.026-2.508-.433-3.556-1.223-1.048-.786-1.766-1.791-2.156-3.015.416.063.8.094 1.153.094.542 0 1.08-.071 1.607-.21-1.412-.29-2.582-.994-3.508-2.11-.927-1.115-1.39-2.41-1.39-3.887v-.073c.859.48 1.777.737 2.763.774-.834-.554-1.495-1.28-1.989-2.175-.489-.896-.734-1.867-.734-2.913 0-1.11.276-2.138.83-3.084 1.525 1.878 3.381 3.384 5.57 4.514 2.19 1.127 4.532 1.754 7.029 1.881-.102-.48-.153-.946-.153-1.401 0-1.69.596-3.13 1.789-4.322C17.508.595 18.948-.001 20.638-.001c1.765 0 3.254.644 4.466 1.932 1.373-.265 2.666-.76 3.878-1.477-.469 1.449-1.364 2.573-2.69 3.367 1.176-.124 2.348-.44 3.52-.946" mask="url(#prefix__b)"/>
    </g>
</svg>
