<svg xmlns="http://www.w3.org/2000/svg" xmlns:xlink="http://www.w3.org/1999/xlink" width="32" height="23" viewBox="0 0 32 23">
    <defs>
        <path id="prefix__a" d="M0.001 0.001L32 0.001 32 22.857 0.001 22.857z"/>
    </defs>
    <g fill="none" fill-rule="evenodd">
        <mask id="prefix__b" fill="#fff">
            <use xlink:href="#prefix__a"/>
        </mask>
        <path fill="#FFF" d="M22.857 11.429c0-.44-.179-.763-.536-.966l-9.142-5.712c-.37-.24-.757-.25-1.16-.037-.394.213-.592.547-.592 1v11.43c0 .453.198.786.592 1 .19.095.374.14.552.14.238 0 .44-.058.608-.178l9.142-5.715c.357-.2.536-.522.536-.962m9.125-2.678c.01.64.019 1.534.019 2.678s-.008 2.034-.019 2.677c-.013.645-.064 1.456-.152 2.437-.088.984-.224 1.862-.403 2.635-.189.87-.6 1.603-1.232 2.197-.629.595-1.368.942-2.213 1.035-2.643.299-6.637.448-11.981.448-5.347 0-9.342-.15-11.982-.448-.848-.093-1.589-.44-2.224-1.035-.637-.594-1.05-1.328-1.242-2.197-.166-.773-.294-1.65-.384-2.635-.088-.981-.139-1.792-.15-2.437-.013-.643-.018-1.533-.018-2.677C0 10.285.006 9.39.019 8.75c.011-.645.062-1.456.15-2.437.09-.984.224-1.861.402-2.635.19-.87.6-1.602 1.232-2.197S3.171.54 4.02.447C6.66.15 10.654 0 16.001 0c5.344 0 9.338.15 11.981.448.845.094 1.587.44 2.224 1.035.637.595 1.048 1.328 1.24 2.197.168.774.296 1.65.384 2.635.088.981.139 1.792.152 2.437" mask="url(#prefix__b)"/>
    </g>
</svg>
